<svg width="892" height="600" viewBox="0 0 892 600" fill="none" xmlns="http://www.w3.org/2000/svg">
<path fill-rule="evenodd" clip-rule="evenodd" d="M149.218 596.993H170.748V482.205H146.213L110.162 531.83L74.1101 482.205H49.0742V596.993H71.1058V513.784L107.658 563.91H111.664L149.218 513.784V596.993ZM756.587 481.704H730.55V482.707L775.114 549.374V596.993H796.645V549.374L842.21 482.707V481.704H816.173L785.629 529.323L756.587 481.704ZM728.547 595.489L693.497 556.391C715.528 551.88 722.538 535.84 722.538 520.301C722.538 500.251 708.518 482.205 681.48 481.704C662.953 482.205 644.927 481.704 626.401 481.704V596.993H648.432V558.897H668.962L702.51 596.993H728.547V595.489ZM681.48 502.256C694.999 502.256 701.008 511.278 701.008 520.802C701.008 529.825 694.999 539.349 681.48 539.349H648.432V502.256H681.48ZM609.877 575.94H545.285V549.875H607.374V529.825H545.285V502.757H609.877V481.704H523.754C523.754 520.301 523.754 558.897 523.754 596.993H609.877V575.94ZM452.652 596.993H474.183V501.754H510.735V481.704C477.688 481.704 449.147 481.704 416.1 481.704V501.754H452.652V596.993ZM402.58 501.253C394.068 483.208 375.542 478.195 357.516 478.195C335.985 478.195 312.952 488.22 312.952 511.779C312.952 537.343 334.483 543.86 358.017 546.366C373.539 548.371 384.555 552.882 384.555 563.409C384.555 575.94 372.037 580.953 358.017 580.953C344.497 580.953 330.978 574.938 325.971 562.406L307.945 571.93C316.457 592.983 334.483 600 358.017 600C383.553 600 406.085 588.973 406.085 563.409C406.085 535.84 384.054 529.825 360.019 526.817C345.999 525.313 333.982 522.306 333.982 512.281C333.982 503.759 341.994 497.243 358.017 497.243C370.534 497.243 381.55 503.258 385.556 509.774L402.58 501.253ZM282.408 596.993H306.443L254.869 481.704H230.834L179.261 596.993H202.794L212.809 575.439H272.895L282.408 596.993ZM264.382 555.389H221.321L242.852 506.266L264.382 555.389Z" fill="white"/>
<path fill-rule="evenodd" clip-rule="evenodd" d="M718.535 117.294C689.994 59.1482 629.407 42.6067 570.823 42.6067C543.284 42.6067 514.743 48.1206 490.208 58.6469V0C420.608 0 367.532 0 298.934 0V74.1859H410.093V243.109C410.093 307.27 395.072 357.395 322.969 357.395C259.378 357.395 224.828 328.824 217.317 272.182H138.204C148.218 376.443 222.325 432.584 322.969 432.584C375.544 432.584 399.578 416.042 431.123 387.972C463.169 427.07 512.24 441.606 572.326 441.606C655.945 441.606 730.051 405.516 730.051 321.806C730.051 232.081 656.947 211.53 578.835 202.006C533.77 196.492 494.715 187.47 494.715 154.387C494.715 126.316 520.251 104.261 572.826 104.261C613.384 104.261 648.935 124.813 661.954 146.367L718.535 117.294ZM490.208 247.62C514.242 257.645 542.783 262.658 572.826 266.167C622.898 271.681 659.951 286.217 659.951 321.806C659.951 362.408 617.891 378.448 573.327 378.448C531.768 378.448 492.712 363.41 473.184 329.826C483.699 305.265 489.207 277.696 490.208 247.62Z" fill="white"/>
<path fill-rule="evenodd" clip-rule="evenodd" d="M749.571 437.598C822.676 451.132 856.725 418.55 856.725 355.893V286.219C856.725 267.171 860.23 244.614 891.775 244.614V199.501C860.23 199.501 856.725 176.444 856.725 157.897V88.2226C856.725 25.0644 822.676 -7.01598 749.571 6.51793V53.636C781.617 45.1146 793.634 56.6435 793.634 91.2302V157.897C793.634 187.471 791.131 211.532 828.184 222.058C791.131 232.584 793.634 257.146 793.634 286.219V352.886C793.634 387.472 786.124 394.49 749.571 390.48V437.598Z" fill="white"/>
<path fill-rule="evenodd" clip-rule="evenodd" d="M142.204 437.598C69.0989 451.132 34.5495 418.55 34.5495 355.893V286.219C34.5495 267.171 31.0444 244.614 0 244.614V199.501C31.0444 199.501 34.5495 176.444 34.5495 157.897V88.2226C34.5495 25.0644 69.0989 -7.01598 142.204 6.51793V53.636C110.158 45.1146 98.1405 56.6435 98.1405 91.2302V157.897C98.1405 187.471 100.644 211.532 63.591 222.058C100.644 232.584 98.1405 257.146 98.1405 286.219V352.886C98.1405 387.472 105.651 394.49 142.204 390.48V437.598Z" fill="white"/>
</svg>
